Benne_Source.ufo
<glyph name="acute" format="2">
  <advance width="257"/>
  <unicode hex="00B4"/>
  <outline>
    <contour>
      <point x="207" y="614"/>
      <point x="207" y="626" type="curve" smooth="yes"/>
      <point x="207" y="641"/>
      <point x="191" y="649"/>
      <point x="158" y="649" type="curve" smooth="yes"/>
      <point x="147" y="649"/>
      <point x="138" y="643"/>
      <point x="131" y="631" type="curve" smooth="yes"/>
      <point x="77" y="537"/>
      <point x="50" y="484"/>
      <point x="50" y="473" type="curve" smooth="yes"/>
      <point x="50" y="462"/>
      <point x="53" y="456"/>
      <point x="60" y="456" type="curve" smooth="yes"/>
      <point x="66" y="456"/>
      <point x="78" y="465"/>
      <point x="95" y="484" type="curve" smooth="yes"/>
      <point x="129" y="520"/>
    </contour>
  </outline>
</glyph>
<glyph name="cedilla" format="2">
  <advance width="255"/>
  <unicode hex="00B8"/>
  <outline>
    <contour>
      <point x="180" y="12" type="line"/>
      <point x="148" y="13" type="line"/>
      <point x="128" y="-14" type="line"/>
      <point x="57" y="-104" type="line"/>
      <point x="54" y="-109"/>
      <point x="52" y="-112"/>
      <point x="52" y="-115" type="curve" smooth="yes"/>
      <point x="52" y="-121"/>
      <point x="62" y="-129"/>
      <point x="70" y="-129" type="curve"/>
      <point x="96" y="-123" type="line"/>
      <point x="132" y="-123"/>
      <point x="155" y="-144"/>
      <point x="155" y="-180" type="curve" smooth="yes"/>
      <point x="155" y="-217"/>
      <point x="134" y="-227"/>
      <point x="113" y="-227" type="curve" smooth="yes"/>
      <point x="100" y="-227"/>
      <point x="87" y="-223"/>
      <point x="79" y="-220" type="curve" smooth="yes"/>
      <point x="63" y="-214" type="line"/>
      <point x="58" y="-214"/>
      <point x="50" y="-221"/>
      <point x="50" y="-233" type="curve" smooth="yes"/>
      <point x="50" y="-260"/>
      <point x="60" y="-274"/>
      <point x="80" y="-274" type="curve" smooth="yes"/>
      <point x="125" y="-274"/>
      <point x="205" y="-211"/>
      <point x="205" y="-139" type="curve" smooth="yes"/>
      <point x="205" y="-107"/>
      <point x="176" y="-76"/>
      <point x="152" y="-67" type="curve" smooth="yes"/>
      <point x="139" y="-62"/>
      <point x="133" y="-57"/>
      <point x="133" y="-51" type="curve" smooth="yes"/>
      <point x="133" y="-48"/>
      <point x="134" y="-46"/>
      <point x="137" y="-43" type="curve"/>
    </contour>
  </outline>
</glyph>
<glyph name="Thorn" format="2">
  <advance width="559"/>
  <unicode hex="00DE"/>
  <outline>
    <contour>
      <point x="177" y="650" type="line"/>
      <point x="73" y="653" type="line" smooth="yes"/>
      <point x="54" y="653"/>
      <point x="44" y="649"/>
      <point x="44" y="642" type="curve" smooth="yes"/>
      <point x="44" y="633"/>
      <point x="55" y="626"/>
      <point x="78" y="622" type="curve" smooth="yes"/>
      <point x="123" y="614"/>
      <point x="134" y="593"/>
      <point x="134" y="549" type="curve" smooth="yes"/>
      <point x="134" y="99" type="line" smooth="yes"/>
      <point x="134" y="54"/>
      <point x="107" y="33"/>
      <point x="59" y="25" type="curve" smooth="yes"/>
      <point x="34" y="20"/>
      <point x="22" y="14"/>
      <point x="22" y="7" type="curve" smooth="yes"/>
      <point x="22" y="-1"/>
      <point x="32" y="-5"/>
      <point x="51" y="-5" type="curve"/>
      <point x="180" y="0" type="line"/>
      <point x="297" y="-5" type="line"/>
      <point x="316" y="-5"/>
      <point x="326" y="-1"/>
      <point x="326" y="7" type="curve" smooth="yes"/>
      <point x="326" y="14"/>
      <point x="315" y="20"/>
      <point x="293" y="24" type="curve" smooth="yes"/>
      <point x="240" y="33"/>
      <point x="214" y="57"/>
      <point x="214" y="96" type="curve" smooth="yes"/>
      <point x="214" y="128" type="line" smooth="yes"/>
      <point x="214" y="134"/>
      <point x="217" y="137"/>
      <point x="222" y="137" type="curve"/>
      <point x="256" y="134" type="line"/>
      <point x="316" y="134"/>
      <point x="396" y="153"/>
      <point x="439" y="186" type="curve" smooth="yes"/>
      <point x="482" y="218"/>
      <point x="518" y="299"/>
      <point x="518" y="347" type="curve" smooth="yes"/>
      <point x="518" y="460"/>
      <point x="431" y="524"/>
      <point x="315" y="524" type="curve" smooth="yes"/>
      <point x="285" y="524"/>
      <point x="261" y="522"/>
      <point x="243" y="517" type="curve" smooth="yes"/>
      <point x="232" y="514" type="line"/>
      <point x="225" y="513"/>
      <point x="221" y="512"/>
      <point x="220" y="512" type="curve" smooth="yes"/>
      <point x="216" y="512"/>
      <point x="214" y="519"/>
      <point x="214" y="532" type="curve" smooth="yes"/>
      <point x="214" y="549" type="line" smooth="yes"/>
      <point x="214" y="594"/>
      <point x="240" y="613"/>
      <point x="289" y="622" type="curve" smooth="yes"/>
      <point x="313" y="626"/>
      <point x="325" y="633"/>
      <point x="325" y="642" type="curve" smooth="yes"/>
      <point x="325" y="649"/>
      <point x="315" y="653"/>
      <point x="296" y="653" type="curve" smooth="yes"/>
    </contour>
    <contour>
      <point x="213" y="183" type="curve" smooth="yes"/>
      <point x="212" y="300" type="line" smooth="yes"/>
      <point x="212" y="328"/>
      <point x="213" y="382"/>
      <point x="214" y="462" type="curve"/>
      <point x="215" y="471"/>
      <point x="219" y="477"/>
      <point x="228" y="482" type="curve" smooth="yes"/>
      <point x="245" y="491"/>
      <point x="260" y="491"/>
      <point x="289" y="491" type="curve" smooth="yes"/>
      <point x="299" y="491" type="line" smooth="yes"/>
      <point x="372" y="491"/>
      <point x="426" y="416"/>
      <point x="426" y="335" type="curve" smooth="yes"/>
      <point x="426" y="203"/>
      <point x="348" y="163"/>
      <point x="265" y="163" type="curve" smooth="yes"/>
      <point x="246" y="163"/>
      <point x="231" y="166"/>
      <point x="222" y="172" type="curve"/>
      <point x="216" y="175"/>
      <point x="213" y="179"/>
    </contour>
  </outline>
</glyph>
<glyph name="eacute" format="2">
  <advance width="388"/>
  <unicode hex="00E9"/>
  <outline>
    <contour>
      <point x="344" y="614"/>
      <point x="344" y="626" type="curve" smooth="yes"/>
      <point x="344" y="641"/>
      <point x="328" y="649"/>
      <point x="295" y="649" type="curve" smooth="yes"/>
      <point x="284" y="649"/>
      <point x="275" y="643"/>
      <point x="268" y="631" type="curve" smooth="yes"/>
      <point x="214" y="537"/>
      <point x="187" y="484"/>
      <point x="187" y="473" type="curve" smooth="yes"/>
      <point x="187" y="462"/>
      <point x="190" y="456"/>
      <point x="197" y="456" type="curve" smooth="yes"/>
      <point x="203" y="456"/>
      <point x="215" y="465"/>
      <point x="232" y="484" type="curve" smooth="yes"/>
      <point x="266" y="520"/>
    </contour>
    <contour>
      <point x="309" y="414"/>
      <point x="229" y="414" type="curve" smooth="yes"/>
      <point x="117" y="414"/>
      <point x="30" y="320"/>
      <point x="30" y="198" type="curve" smooth="yes"/>
      <point x="30" y="76"/>
      <point x="106" y="-14"/>
      <point x="194" y="-14" type="curve" smooth="yes"/>
      <point x="282" y="-14"/>
      <point x="343" y="36"/>
      <point x="352" y="71" type="curve" smooth="yes"/>
      <point x="354" y="77"/>
      <point x="355" y="83"/>
      <point x="355" y="87" type="curve" smooth="yes"/>
      <point x="355" y="94"/>
      <point x="352" y="97"/>
      <point x="348" y="97" type="curve" smooth="yes"/>
      <point x="345" y="97"/>
      <point x="342" y="95"/>
      <point x="337" y="90" type="curve"/>
      <point x="314" y="61"/>
      <point x="282" y="46"/>
      <point x="241" y="46" type="curve" smooth="yes"/>
      <point x="157" y="46"/>
      <point x="92" y="127"/>
      <point x="92" y="220" type="curve" smooth="yes"/>
      <point x="92" y="252"/>
      <point x="98" y="257"/>
      <point x="117" y="257" type="curve" smooth="yes"/>
      <point x="281" y="257" type="line" smooth="yes"/>
      <point x="326" y="257"/>
      <point x="358" y="264"/>
      <point x="358" y="321" type="curve" smooth="yes"/>
      <point x="358" y="378"/>
    </contour>
    <contour>
      <point x="295" y="358"/>
      <point x="295" y="322" type="curve" smooth="yes"/>
      <point x="295" y="303"/>
      <point x="292" y="294"/>
      <point x="285" y="293" type="curve" smooth="yes"/>
      <point x="268" y="290"/>
      <point x="243" y="288"/>
      <point x="212" y="288" type="curve" smooth="yes"/>
      <point x="130" y="288" type="line" smooth="yes"/>
      <point x="117" y="288"/>
      <point x="111" y="293"/>
      <point x="111" y="303" type="curve" smooth="yes"/>
      <point x="111" y="334"/>
      <point x="162" y="383"/>
      <point x="210" y="383" type="curve" smooth="yes"/>
      <point x="257" y="383"/>
    </contour>
  </outline>
</glyph>
<glyph name="oslash" format="2">
  <advance width="485"/>
  <unicode hex="00F8"/>
  <outline>
    <contour>
      <point x="338" y="316" type="curve"/>
      <point x="131" y="117" type="line"/>
      <point x="119" y="145"/>
      <point x="113" y="176"/>
      <point x="113" y="210" type="curve" smooth="yes"/>
      <point x="113" y="327"/>
      <point x="158" y="380"/>
      <point x="237" y="380" type="curve" smooth="yes"/>
      <point x="276" y="380"/>
      <point x="310" y="359"/>
    </contour>
    <contour>
      <point x="56" y="-12" type="curve" smooth="yes"/>
      <point x="103" y="34" type="line"/>
      <point x="142" y="2"/>
      <point x="184" y="-14"/>
      <point x="230" y="-14" type="curve" smooth="yes"/>
      <point x="373" y="-14"/>
      <point x="455" y="88"/>
      <point x="455" y="213" type="curve" smooth="yes"/>
      <point x="455" y="256"/>
      <point x="440" y="297"/>
      <point x="411" y="335" type="curve"/>
      <point x="451" y="374" type="line"/>
      <point x="458" y="380"/>
      <point x="462" y="388"/>
      <point x="462" y="399" type="curve" smooth="yes"/>
      <point x="462" y="410"/>
      <point x="457" y="415"/>
      <point x="448" y="415" type="curve" smooth="yes"/>
      <point x="443" y="415"/>
      <point x="440" y="414"/>
      <point x="437" y="411" type="curve" smooth="yes"/>
      <point x="385" y="361" type="line"/>
      <point x="346" y="396"/>
      <point x="298" y="414"/>
      <point x="242" y="414" type="curve" smooth="yes"/>
      <point x="130" y="414"/>
      <point x="30" y="311"/>
      <point x="30" y="186" type="curve" smooth="yes"/>
      <point x="30" y="143"/>
      <point x="45" y="102"/>
      <point x="75" y="63" type="curve"/>
      <point x="35" y="25" type="line"/>
      <point x="28" y="20"/>
      <point x="25" y="14"/>
      <point x="25" y="8" type="curve" smooth="yes"/>
      <point x="25" y="-5"/>
      <point x="38" y="-15"/>
      <point x="47" y="-15" type="curve" smooth="yes"/>
      <point x="51" y="-15"/>
      <point x="54" y="-14"/>
    </contour>
    <contour>
      <point x="150" y="79" type="curve"/>
      <point x="356" y="281" type="line"/>
      <point x="367" y="251"/>
      <point x="373" y="215"/>
      <point x="373" y="173" type="curve" smooth="yes"/>
      <point x="373" y="88"/>
      <point x="350" y="16"/>
      <point x="251" y="16" type="curve" smooth="yes"/>
      <point x="210" y="16"/>
      <point x="177" y="37"/>
    </contour>
  </outline>
</glyph>
<glyph name="ogonek" format="2">
  <advance width="684"/>
  <unicode hex="02DB"/>
  <outline>
    <contour>
      <point x="574" y="6" type="curve"/>
      <point x="544" y="7" type="line"/>
      <point x="441" y="-59"/>
      <point x="394" y="-117"/>
      <point x="394" y="-174" type="curve" smooth="yes"/>
      <point x="394" y="-237"/>
      <point x="447" y="-287"/>
      <point x="505" y="-287" type="curve" smooth="yes"/>
      <point x="563" y="-287"/>
      <point x="639" y="-225"/>
      <point x="639" y="-182" type="curve" smooth="yes"/>
      <point x="639" y="-174"/>
      <point x="633" y="-172"/>
      <point x="627" y="-176" type="curve" smooth="yes"/>
      <point x="624" y="-178"/>
      <point x="613" y="-185"/>
      <point x="596" y="-198" type="curve"/>
      <point x="583" y="-207"/>
      <point x="564" y="-216"/>
      <point x="538" y="-216" type="curve" smooth="yes"/>
      <point x="512" y="-216"/>
      <point x="479" y="-190"/>
      <point x="479" y="-155" type="curve" smooth="yes"/>
      <point x="479" y="-102"/>
      <point x="508" y="-50"/>
    </contour>
  </outline>
</glyph>
<glyph name="tilde" format="2">
  <advance width="368"/>
  <unicode hex="02DC"/>
  <outline>
    <contour>
      <point x="121" y="507" type="curve"/>
      <point x="233" y="500" type="line"/>
      <point x="256" y="500"/>
      <point x="318" y="570"/>
      <point x="318" y="583" type="curve" smooth="yes"/>
      <point x="318" y="594"/>
      <point x="313" y="600"/>
      <point x="302" y="600" type="curve" smooth="yes"/>
      <point x="301" y="600"/>
      <point x="295" y="594"/>
      <point x="284" y="583" type="curve"/>
      <point x="272" y="572"/>
      <point x="259" y="566"/>
      <point x="245" y="566" type="curve"/>
      <point x="138" y="574" type="line"/>
      <point x="115" y="574"/>
      <point x="50" y="503"/>
      <point x="50" y="490" type="curve" smooth="yes"/>
      <point x="50" y="477"/>
      <point x="55" y="470"/>
      <point x="64" y="470" type="curve" smooth="yes"/>
      <point x="65" y="470"/>
      <point x="73" y="476"/>
      <point x="86" y="489" type="curve"/>
      <point x="99" y="501"/>
      <point x="111" y="507"/>
    </contour>
  </outline>
</glyph>
<glyph name="knCandrabindu" format="2">
  <advance width="3"/>
  <unicode hex="0C81"/>
  <outline>
    <contour>
      <point x="93" y="611"/>
      <point x="152" y="684"/>
      <point x="153" y="777" type="curve"/>
      <point x="123" y="777" type="line"/>
      <point x="113" y="717"/>
      <point x="75" y="679"/>
      <point x="1" y="679" type="curve" smooth="yes"/>
      <point x="-72" y="679"/>
      <point x="-109" y="717"/>
      <point x="-120" y="777" type="curve"/>
      <point x="-150" y="777" type="line"/>
      <point x="-147" y="684"/>
      <point x="-89" y="611"/>
      <point x="1" y="611" type="curve" smooth="yes"/>
    </contour>
    <contour>
      <point x="32" y="781"/>
      <point x="55" y="804"/>
      <point x="55" y="836" type="curve" smooth="yes"/>
      <point x="55" y="870"/>
      <point x="32" y="892"/>
      <point x="0" y="892" type="curve" smooth="yes"/>
      <point x="-33" y="892"/>
      <point x="-57" y="870"/>
      <point x="-57" y="836" type="curve" smooth="yes"/>
      <point x="-57" y="804"/>
      <point x="-33" y="781"/>
      <point x="0" y="781" type="curve" smooth="yes"/>
    </contour>
  </outline>
</glyph>
<glyph name="foursuperior" format="2">
  <advance width="363"/>
  <unicode hex="2074"/>
  <outline>
    <contour>
      <point x="194" y="591" type="curve" smooth="yes"/>
      <point x="103" y="591" type="line" smooth="yes"/>
      <point x="101" y="591"/>
      <point x="101" y="593"/>
      <point x="103" y="596" type="curve"/>
      <point x="139" y="642"/>
      <point x="170" y="679"/>
      <point x="196" y="708" type="curve"/>
      <point x="197" y="709"/>
      <point x="199" y="709"/>
      <point x="200" y="709" type="curve" smooth="yes"/>
      <point x="201" y="709"/>
      <point x="202" y="708"/>
      <point x="202" y="707" type="curve" smooth="yes"/>
      <point x="202" y="596" type="line" smooth="yes"/>
      <point x="202" y="593"/>
      <point x="199" y="591"/>
    </contour>
    <contour>
      <point x="276" y="551" type="curve" smooth="yes"/>
      <point x="310" y="550" type="line" smooth="yes"/>
      <point x="314" y="550"/>
      <point x="323" y="573"/>
      <point x="323" y="586" type="curve" smooth="yes"/>
      <point x="323" y="589"/>
      <point x="319" y="591"/>
      <point x="312" y="591" type="curve"/>
      <point x="304" y="590"/>
      <point x="292" y="590"/>
      <point x="275" y="590" type="curve" smooth="yes"/>
      <point x="257" y="590" type="line" smooth="yes"/>
      <point x="255" y="590"/>
      <point x="254" y="591"/>
      <point x="254" y="594" type="curve" smooth="yes"/>
      <point x="253" y="643"/>
      <point x="252" y="707"/>
      <point x="252" y="785" type="curve" smooth="yes"/>
      <point x="252" y="789"/>
      <point x="249" y="794"/>
      <point x="245" y="793" type="curve" smooth="yes"/>
      <point x="228" y="789"/>
      <point x="81" y="607"/>
      <point x="41" y="552" type="curve"/>
      <point x="40" y="551"/>
      <point x="40" y="551"/>
      <point x="40" y="550" type="curve" smooth="yes"/>
      <point x="40" y="547"/>
      <point x="44" y="544"/>
      <point x="47" y="544" type="curve" smooth="yes"/>
      <point x="193" y="548" type="line" smooth="yes"/>
      <point x="199" y="548"/>
      <point x="202" y="546"/>
      <point x="202" y="543" type="curve" smooth="yes"/>
      <point x="202" y="441" type="line" smooth="yes"/>
      <point x="202" y="436"/>
      <point x="205" y="433"/>
      <point x="211" y="433" type="curve" smooth="yes"/>
      <point x="219" y="433"/>
      <point x="254" y="449"/>
      <point x="254" y="462" type="curve" smooth="yes"/>
      <point x="254" y="546" type="line" smooth="yes"/>
      <point x="254" y="549"/>
      <point x="261" y="551"/>
    </contour>
  </outline>
</glyph>
<glyph name=".notdef" format="2">
  <advance width="364"/>
  <outline>
    <contour>
      <point x="33" y="0" type="line"/>
      <point x="298" y="0" type="line"/>
      <point x="298" y="666" type="line"/>
      <point x="33" y="666" type="line"/>
    </contour>
    <contour>
      <point x="66" y="33" type="line"/>
      <point x="66" y="633" type="line"/>
      <point x="265" y="633" type="line"/>
      <point x="265" y="33" type="line"/>
    </contour>
  </outline>
</glyph>
<glyph name="breve.caps" format="2">
  <advance width="400"/>
  <outline>
    <contour>
      <point x="53" y="846"/>
      <point x="50" y="838"/>
      <point x="50" y="822" type="curve" smooth="yes"/>
      <point x="50" y="749"/>
      <point x="119" y="692"/>
      <point x="199" y="692" type="curve" smooth="yes"/>
      <point x="279" y="692"/>
      <point x="350" y="757"/>
      <point x="350" y="822" type="curve" smooth="yes"/>
      <point x="350" y="838"/>
      <point x="347" y="846"/>
      <point x="340" y="846" type="curve" smooth="yes"/>
      <point x="333" y="846"/>
      <point x="326" y="839"/>
      <point x="318" y="824" type="curve"/>
      <point x="301" y="795"/>
      <point x="261" y="762"/>
      <point x="200" y="762" type="curve" smooth="yes"/>
      <point x="139" y="762"/>
      <point x="99" y="795"/>
      <point x="83" y="824" type="curve"/>
      <point x="74" y="839"/>
      <point x="67" y="846"/>
      <point x="60" y="846" type="curve" smooth="yes"/>
    </contour>
  </outline>
</glyph>
<glyph name="caron.caps" format="2">
  <advance width="391"/>
  <outline>
    <contour>
      <point x="54" y="832"/>
      <point x="50" y="829"/>
      <point x="50" y="822" type="curve" smooth="yes"/>
      <point x="50" y="818"/>
      <point x="52" y="814"/>
      <point x="57" y="810" type="curve"/>
      <point x="155" y="722" type="line" smooth="yes"/>
      <point x="172" y="707"/>
      <point x="185" y="700"/>
      <point x="196" y="700" type="curve" smooth="yes"/>
      <point x="207" y="700"/>
      <point x="220" y="707"/>
      <point x="237" y="722" type="curve" smooth="yes"/>
      <point x="335" y="810" type="line"/>
      <point x="339" y="813"/>
      <point x="341" y="817"/>
      <point x="341" y="822" type="curve" smooth="yes"/>
      <point x="341" y="829"/>
      <point x="337" y="833"/>
      <point x="330" y="833" type="curve" smooth="yes"/>
      <point x="314" y="833"/>
      <point x="238" y="796"/>
      <point x="206" y="777" type="curve" smooth="yes"/>
      <point x="203" y="775"/>
      <point x="200" y="775"/>
      <point x="197" y="775" type="curve" smooth="yes"/>
      <point x="192" y="775"/>
      <point x="187" y="777"/>
      <point x="180" y="781" type="curve"/>
      <point x="158" y="793"/>
      <point x="78" y="832"/>
      <point x="62" y="832" type="curve" smooth="yes"/>
    </contour>
  </outline>
</glyph>
<glyph name="dotaccent.caps" format="2">
  <advance width="210"/>
  <outline>
    <contour>
      <point x="90" y="810"/>
      <point x="78" y="805"/>
      <point x="67" y="794" type="curve" smooth="yes"/>
      <point x="56" y="783"/>
      <point x="50" y="770"/>
      <point x="50" y="755" type="curve" smooth="yes"/>
      <point x="50" y="724"/>
      <point x="76" y="700"/>
      <point x="105" y="700" type="curve" smooth="yes"/>
      <point x="134" y="700"/>
      <point x="160" y="724"/>
      <point x="160" y="755" type="curve" smooth="yes"/>
      <point x="160" y="786"/>
      <point x="134" y="810"/>
      <point x="105" y="810" type="curve" smooth="yes"/>
    </contour>
  </outline>
</glyph>
<glyph name="knCHU" format="2">
  <advance width="1117"/>
  <outline>
    <contour>
      <point x="977" y="-14"/>
      <point x="1057" y="95"/>
      <point x="1057" y="242" type="curve" smooth="yes"/>
      <point x="1057" y="415"/>
      <point x="961" y="513"/>
      <point x="890" y="513" type="curve" smooth="yes"/>
      <point x="859" y="513"/>
      <point x="842" y="493"/>
      <point x="842" y="470" type="curve" smooth="yes"/>
      <point x="842" y="451"/>
      <point x="854" y="435"/>
      <point x="870" y="430" type="curve" smooth="yes"/>
      <point x="893" y="423"/>
      <point x="914" y="428"/>
      <point x="938" y="420" type="curve" smooth="yes"/>
      <point x="975" y="407"/>
      <point x="1022" y="344"/>
      <point x="1022" y="255" type="curve" smooth="yes"/>
      <point x="1022" y="137"/>
      <point x="952" y="71"/>
      <point x="864" y="71" type="curve" smooth="yes"/>
      <point x="781" y="71"/>
      <point x="735" y="121"/>
      <point x="707" y="184" type="curve"/>
      <point x="690" y="163" type="line"/>
      <point x="703" y="81"/>
      <point x="771" y="-14"/>
      <point x="864" y="-14" type="curve" smooth="yes"/>
    </contour>
    <component base="knCHA"/>
  </outline>
</glyph>
<glyph name="knGAc2" format="2">
  <outline>
    <contour>
      <point x="3" y="-104"/>
      <point x="56" y="-169"/>
      <point x="56" y="-320" type="curve" smooth="yes"/>
      <point x="56" y="-412" type="line"/>
      <point x="111" y="-412" type="line"/>
      <point x="111" y="-336" type="line" smooth="yes"/>
      <point x="111" y="-192"/>
      <point x="33" y="-75"/>
      <point x="-39" y="-75" type="curve" smooth="yes"/>
      <point x="-111" y="-75"/>
      <point x="-188" y="-192"/>
      <point x="-188" y="-336" type="curve" smooth="yes"/>
      <point x="-188" y="-412" type="line"/>
      <point x="-134" y="-412" type="line"/>
      <point x="-134" y="-320" type="line" smooth="yes"/>
      <point x="-134" y="-169"/>
      <point x="-79" y="-104"/>
      <point x="-39" y="-104" type="curve" smooth="yes"/>
    </contour>
  </outline>
</glyph>
<glyph name="knJA.base" format="2">
  <advance width="715"/>
  <outline>
    <contour>
      <point x="543" y="287"/>
      <point x="596" y="339"/>
      <point x="596" y="414" type="curve" smooth="yes"/>
      <point x="596" y="470" type="line"/>
      <point x="549" y="470" type="line"/>
      <point x="553" y="462"/>
      <point x="554" y="453"/>
      <point x="554" y="443" type="curve" smooth="yes"/>
      <point x="554" y="387"/>
      <point x="514" y="360"/>
      <point x="460" y="360" type="curve" smooth="yes"/>
      <point x="394" y="360"/>
      <point x="324" y="393"/>
      <point x="245" y="480" type="curve"/>
      <point x="213" y="477" type="line"/>
      <point x="300" y="356"/>
      <point x="386" y="287"/>
      <point x="468" y="287" type="curve" smooth="yes"/>
    </contour>
    <contour>
      <point x="275" y="-14"/>
      <point x="343" y="43"/>
      <point x="366" y="126" type="curve"/>
      <point x="368" y="126" type="line"/>
      <point x="391" y="43"/>
      <point x="459" y="-14"/>
      <point x="527" y="-14" type="curve" smooth="yes"/>
      <point x="593" y="-14"/>
      <point x="654" y="38"/>
      <point x="654" y="117" type="curve" smooth="yes"/>
      <point x="654" y="172"/>
      <point x="625" y="222"/>
      <point x="591" y="251" type="curve"/>
      <point x="570" y="236" type="line"/>
      <point x="594" y="212"/>
      <point x="606" y="183"/>
      <point x="606" y="156" type="curve" smooth="yes"/>
      <point x="606" y="116"/>
      <point x="581" y="71"/>
      <point x="524" y="71" type="curve" smooth="yes"/>
      <point x="450" y="71"/>
      <point x="384" y="146"/>
      <point x="371" y="221" type="curve"/>
      <point x="362" y="221" type="line"/>
      <point x="348" y="145"/>
      <point x="283" y="71"/>
      <point x="211" y="71" type="curve" smooth="yes"/>
      <point x="157" y="71"/>
      <point x="130" y="114"/>
      <point x="130" y="152" type="curve" smooth="yes"/>
      <point x="130" y="187"/>
      <point x="154" y="223"/>
      <point x="188" y="257" type="curve" smooth="yes"/>
      <point x="229" y="298"/>
      <point x="277" y="349"/>
      <point x="277" y="407" type="curve" smooth="yes"/>
      <point x="277" y="465"/>
      <point x="229" y="519"/>
      <point x="153" y="519" type="curve" smooth="yes"/>
      <point x="78" y="519"/>
      <point x="39" y="464"/>
      <point x="39" y="406" type="curve" smooth="yes"/>
      <point x="39" y="380"/>
      <point x="47" y="352"/>
      <point x="68" y="330" type="curve"/>
      <point x="88" y="345" type="line"/>
      <point x="81" y="360"/>
      <point x="78" y="372"/>
      <point x="78" y="385" type="curve" smooth="yes"/>
      <point x="78" y="421"/>
      <point x="101" y="452"/>
      <point x="148" y="452" type="curve" smooth="yes"/>
      <point x="190" y="452"/>
      <point x="224" y="427"/>
      <point x="224" y="385" type="curve" smooth="yes"/>
      <point x="224" y="344"/>
      <point x="193" y="311"/>
      <point x="161" y="278" type="curve" smooth="yes"/>
      <point x="122" y="238"/>
      <point x="79" y="193"/>
      <point x="79" y="122" type="curve" smooth="yes"/>
      <point x="79" y="38"/>
      <point x="140" y="-14"/>
      <point x="206" y="-14" type="curve" smooth="yes"/>
    </contour>
    <contour>
      <point x="596" y="434" type="line"/>
      <point x="596" y="509" type="line"/>
      <point x="426" y="509" type="line"/>
      <point x="426" y="434" type="line"/>
    </contour>
  </outline>
</glyph>
<glyph name="knKHAU" format="2">
  <advance width="1155"/>
  <outline>
    <contour>
      <point x="590" y="434" type="line" smooth="yes"/>
      <point x="671" y="434"/>
      <point x="725" y="480"/>
      <point x="725" y="552" type="curve" smooth="yes"/>
      <point x="725" y="607"/>
      <point x="694" y="648"/>
      <point x="651" y="664" type="curve"/>
      <point x="636" y="644" type="line"/>
      <point x="660" y="635"/>
      <point x="682" y="610"/>
      <point x="682" y="576" type="curve" smooth="yes"/>
      <point x="682" y="536"/>
      <point x="651" y="509"/>
      <point x="590" y="509" type="curve" smooth="yes"/>
      <point x="530" y="509" type="line"/>
      <point x="530" y="434" type="line"/>
    </contour>
    <component base="knKHA.base"/>
    <component base="knmAU" xOffset="775"/>
  </outline>
</glyph>
<glyph name="knKHE" format="2">
  <advance width="769"/>
  <outline>
    <contour>
      <point x="670" y="434"/>
      <point x="724" y="480"/>
      <point x="724" y="553" type="curve" smooth="yes"/>
      <point x="724" y="651"/>
      <point x="646" y="685"/>
      <point x="589" y="685" type="curve" smooth="yes"/>
      <point x="534" y="685"/>
      <point x="506" y="657"/>
      <point x="506" y="625" type="curve" smooth="yes"/>
      <point x="506" y="592"/>
      <point x="529" y="571"/>
      <point x="563" y="571" type="curve" smooth="yes"/>
      <point x="597" y="571"/>
      <point x="618" y="597"/>
      <point x="618" y="633" type="curve" smooth="yes"/>
      <point x="618" y="639"/>
      <point x="620" y="643"/>
      <point x="624" y="643" type="curve" smooth="yes"/>
      <point x="637" y="643"/>
      <point x="681" y="629"/>
      <point x="681" y="577" type="curve" smooth="yes"/>
      <point x="681" y="530"/>
      <point x="641" y="509"/>
      <point x="590" y="509" type="curve" smooth="yes"/>
      <point x="546" y="509" type="line"/>
      <point x="546" y="434" type="line"/>
      <point x="589" y="434" type="line" smooth="yes"/>
    </contour>
    <component base="knKHA.base"/>
  </outline>
</glyph>
<glyph name="knLLL" format="2">
  <advance width="1076"/>
  <outline>
    <contour>
      <point x="980" y="265"/>
      <point x="1013" y="315"/>
      <point x="1013" y="382" type="curve" smooth="yes"/>
      <point x="1013" y="448"/>
      <point x="970" y="509"/>
      <point x="869" y="509" type="curve" smooth="yes"/>
      <point x="592" y="509" type="line"/>
      <point x="672" y="434" type="line"/>
      <point x="904" y="434" type="line" smooth="yes"/>
      <point x="967" y="434"/>
      <point x="983" y="412"/>
      <point x="983" y="385" type="curve" smooth="yes"/>
      <point x="983" y="355"/>
      <point x="967" y="334"/>
      <point x="931" y="334" type="curve" smooth="yes"/>
      <point x="885" y="334"/>
      <point x="860" y="369"/>
      <point x="860" y="410" type="curve" smooth="yes"/>
      <point x="860" y="520"/>
      <point x="974" y="582"/>
      <point x="1066" y="598" type="curve"/>
      <point x="1055" y="634" type="line"/>
      <point x="943" y="607"/>
      <point x="822" y="541"/>
      <point x="822" y="406" type="curve" smooth="yes"/>
      <point x="822" y="320"/>
      <point x="871" y="265"/>
      <point x="923" y="265" type="curve" smooth="yes"/>
    </contour>
    <component base="knLLLA"/>
  </outline>
</glyph>
<glyph name="knNG" format="2">
  <advance width="971"/>
  <outline>
    <contour>
      <point x="875" y="265"/>
      <point x="908" y="315"/>
      <point x="908" y="382" type="curve" smooth="yes"/>
      <point x="908" y="448"/>
      <point x="865" y="509"/>
      <point x="764" y="509" type="curve" smooth="yes"/>
      <point x="567" y="509" type="line"/>
      <point x="567" y="434" type="line"/>
      <point x="799" y="434" type="line" smooth="yes"/>
      <point x="862" y="434"/>
      <point x="878" y="412"/>
      <point x="878" y="385" type="curve" smooth="yes"/>
      <point x="878" y="355"/>
      <point x="862" y="334"/>
      <point x="826" y="334" type="curve" smooth="yes"/>
      <point x="780" y="334"/>
      <point x="755" y="369"/>
      <point x="755" y="410" type="curve" smooth="yes"/>
      <point x="755" y="520"/>
      <point x="869" y="582"/>
      <point x="961" y="598" type="curve"/>
      <point x="950" y="634" type="line"/>
      <point x="838" y="607"/>
      <point x="717" y="541"/>
      <point x="717" y="406" type="curve" smooth="yes"/>
      <point x="717" y="320"/>
      <point x="766" y="265"/>
      <point x="818" y="265" type="curve" smooth="yes"/>
    </contour>
    <component base="knNGA"/>
  </outline>
</glyph>
<glyph name="knTHAc2" format="2">
  <advance width="1"/>
  <outline>
    <contour>
      <point x="-27" y="-375"/>
      <point x="18" y="-412"/>
      <point x="69" y="-412" type="curve" smooth="yes"/>
      <point x="122" y="-412"/>
      <point x="162" y="-371"/>
      <point x="162" y="-291" type="curve" smooth="yes"/>
      <point x="162" y="-166"/>
      <point x="62" y="-74"/>
      <point x="-42" y="-75" type="curve" smooth="yes"/>
      <point x="-148" y="-74"/>
      <point x="-246" y="-166"/>
      <point x="-246" y="-291" type="curve" smooth="yes"/>
      <point x="-246" y="-371"/>
      <point x="-206" y="-412"/>
      <point x="-153" y="-412" type="curve" smooth="yes"/>
      <point x="-102" y="-412"/>
      <point x="-58" y="-375"/>
      <point x="-45" y="-323" type="curve"/>
      <point x="-40" y="-323" type="line"/>
    </contour>
    <contour>
      <point x="-20" y="-220"/>
      <point x="-8" y="-206"/>
      <point x="-8" y="-183" type="curve" smooth="yes"/>
      <point x="-8" y="-160"/>
      <point x="-20" y="-147"/>
      <point x="-43" y="-147" type="curve" smooth="yes"/>
      <point x="-66" y="-147"/>
      <point x="-79" y="-160"/>
      <point x="-79" y="-183" type="curve" smooth="yes"/>
      <point x="-79" y="-206"/>
      <point x="-66" y="-220"/>
      <point x="-43" y="-220" type="curve" smooth="yes"/>
    </contour>
    <contour>
      <point x="-58" y="-310"/>
      <point x="-97" y="-359"/>
      <point x="-150" y="-359" type="curve" smooth="yes"/>
      <point x="-199" y="-359"/>
      <point x="-209" y="-317"/>
      <point x="-209" y="-284" type="curve" smooth="yes"/>
      <point x="-209" y="-193"/>
      <point x="-136" y="-107"/>
      <point x="-42" y="-107" type="curve" smooth="yes"/>
      <point x="52" y="-107"/>
      <point x="125" y="-193"/>
      <point x="125" y="-284" type="curve" smooth="yes"/>
      <point x="125" y="-317"/>
      <point x="115" y="-359"/>
      <point x="64" y="-359" type="curve" smooth="yes"/>
      <point x="9" y="-359"/>
      <point x="-26" y="-310"/>
      <point x="-34" y="-263" type="curve"/>
      <point x="-50" y="-263" type="line"/>
    </contour>
    <contour>
      <point x="-25" y="-469"/>
      <point x="-6" y="-475"/>
      <point x="-6" y="-506" type="curve" smooth="yes"/>
      <point x="-6" y="-530"/>
      <point x="-24" y="-544"/>
      <point x="-42" y="-544" type="curve" smooth="yes"/>
      <point x="-60" y="-544"/>
      <point x="-76" y="-530"/>
      <point x="-76" y="-505" type="curve" smooth="yes"/>
      <point x="-76" y="-475"/>
      <point x="-59" y="-469"/>
      <point x="-51" y="-396" type="curve"/>
      <point x="-33" y="-396" type="line"/>
    </contour>
  </outline>
</glyph>
<glyph name="knTTHAc2" format="2">
  <advance width="1"/>
  <outline>
    <contour>
      <point x="-19" y="-280"/>
      <point x="-5" y="-267"/>
      <point x="-5" y="-246" type="curve" smooth="yes"/>
      <point x="-5" y="-224"/>
      <point x="-19" y="-212"/>
      <point x="-40" y="-212" type="curve" smooth="yes"/>
      <point x="-61" y="-212"/>
      <point x="-74" y="-224"/>
      <point x="-74" y="-246" type="curve" smooth="yes"/>
      <point x="-74" y="-267"/>
      <point x="-61" y="-280"/>
      <point x="-40" y="-280" type="curve" smooth="yes"/>
    </contour>
    <contour>
      <point x="59" y="-412"/>
      <point x="115" y="-343"/>
      <point x="115" y="-259" type="curve" smooth="yes"/>
      <point x="115" y="-166"/>
      <point x="56" y="-101"/>
      <point x="-39" y="-101" type="curve" smooth="yes"/>
      <point x="-132" y="-101"/>
      <point x="-191" y="-166"/>
      <point x="-191" y="-259" type="curve" smooth="yes"/>
      <point x="-191" y="-343"/>
      <point x="-134" y="-412"/>
      <point x="-39" y="-412" type="curve" smooth="yes"/>
    </contour>
    <contour>
      <point x="-108" y="-359"/>
      <point x="-153" y="-310"/>
      <point x="-153" y="-245" type="curve" smooth="yes"/>
      <point x="-153" y="-174"/>
      <point x="-105" y="-134"/>
      <point x="-39" y="-134" type="curve" smooth="yes"/>
      <point x="28" y="-134"/>
      <point x="78" y="-174"/>
      <point x="78" y="-245" type="curve" smooth="yes"/>
      <point x="78" y="-310"/>
      <point x="31" y="-359"/>
      <point x="-39" y="-359" type="curve" smooth="yes"/>
    </contour>
  </outline>
</glyph>
<glyph name="knYAU" format="2">
  <advance width="1607"/>
  <outline>
    <contour>
      <point x="1041" y="434" type="line" smooth="yes"/>
      <point x="1122" y="434"/>
      <point x="1176" y="480"/>
      <point x="1176" y="552" type="curve" smooth="yes"/>
      <point x="1176" y="607"/>
      <point x="1145" y="648"/>
      <point x="1102" y="664" type="curve"/>
      <point x="1087" y="644" type="line"/>
      <point x="1111" y="635"/>
      <point x="1133" y="610"/>
      <point x="1133" y="576" type="curve" smooth="yes"/>
      <point x="1133" y="536"/>
      <point x="1102" y="509"/>
      <point x="1041" y="509" type="curve" smooth="yes"/>
      <point x="981" y="509" type="line"/>
      <point x="981" y="434" type="line"/>
    </contour>
    <component base="knYA.base"/>
    <component base="knmAU" xOffset="1227"/>
  </outline>
</glyph>
<glyph name="macron.caps" format="2">
  <advance width="400"/>
  <outline>
    <contour>
      <point x="337" y="777" type="curve" smooth="yes"/>
      <point x="74" y="777" type="line" smooth="yes"/>
      <point x="58" y="777"/>
      <point x="50" y="750"/>
      <point x="50" y="739" type="curve" smooth="yes"/>
      <point x="50" y="727"/>
      <point x="57" y="723"/>
      <point x="64" y="723" type="curve" smooth="yes"/>
      <point x="319" y="723" type="line" smooth="yes"/>
      <point x="335" y="723"/>
      <point x="350" y="747"/>
      <point x="350" y="760" type="curve" smooth="yes"/>
      <point x="350" y="772"/>
      <point x="344" y="777"/>
    </contour>
  </outline>
</glyph>
<glyph name="ring.caps" format="2">
  <advance width="278"/>
  <outline>
    <contour>
      <point x="50" y="827"/>
      <point x="50" y="779" type="curve" smooth="yes"/>
      <point x="50" y="731"/>
      <point x="88" y="700"/>
      <point x="137" y="700" type="curve" smooth="yes"/>
      <point x="185" y="700"/>
      <point x="228" y="738"/>
      <point x="228" y="786" type="curve" smooth="yes"/>
      <point x="228" y="834"/>
      <point x="193" y="864"/>
      <point x="143" y="864" type="curve" smooth="yes"/>
      <point x="93" y="864"/>
    </contour>
    <contour>
      <point x="108" y="841"/>
      <point x="137" y="841" type="curve" smooth="yes"/>
      <point x="166" y="841"/>
      <point x="190" y="814"/>
      <point x="190" y="783" type="curve" smooth="yes"/>
      <point x="190" y="751"/>
      <point x="173" y="722"/>
      <point x="143" y="722" type="curve" smooth="yes"/>
      <point x="113" y="722"/>
      <point x="88" y="750"/>
      <point x="88" y="782" type="curve" smooth="yes"/>
      <point x="88" y="813"/>
    </contour>
  </outline>
</glyph>
